<svg width="122" height="53" viewBox="0 0 122 53" fill="none" xmlns="http://www.w3.org/2000/svg">
<g clip-path="url(#clip0_53_1348)">
<path d="M45.5312 2.31488H54.3831V4.04812H50.8806V15.1185H49.0337V4.05931H45.5312V2.32606V2.31488Z" fill="#910748"/>
<path d="M57.4917 7.27968C57.9759 6.87712 58.8318 6.35156 60.0369 6.35156C61.3094 6.35156 62.4469 6.93303 63.1902 7.87234C63.742 8.56564 64.0348 9.44903 64.0348 10.9251V15.1296H62.2892V10.8244C62.2892 9.72859 62.0865 9.21421 61.7712 8.83401C61.3658 8.31963 60.7013 7.99535 59.9805 7.99535C58.8431 7.99535 58.0097 8.59918 57.4917 9.22539V15.1408H55.7461V2.13586H57.4917V7.27968Z" fill="#910748"/>
<path d="M66.8954 11.1936C66.9855 12.6361 68.1905 13.7879 69.6996 13.7879C70.9947 13.7879 71.6929 13.1617 72.1884 12.6137L73.3259 13.6984C72.6839 14.5259 71.4451 15.3087 69.677 15.3087C67.1544 15.3087 65.1948 13.4077 65.1948 10.8246C65.1948 8.24149 66.9629 6.34052 69.418 6.34052C71.8731 6.34052 73.5849 8.27504 73.5849 10.8246C73.5849 10.9029 73.5849 11.0259 73.5624 11.1936H66.8954ZM67.0418 9.72873H71.7605C71.5015 8.63287 70.5104 7.8613 69.4743 7.8613C68.3481 7.8613 67.3346 8.6105 67.0418 9.72873Z" fill="#910748"/>
<path d="M46.6924 18.7862H48.5393V24.1872L53.8437 18.7862H56.2762L50.4538 24.7351L56.6479 31.601H54.2941L48.5393 25.1936V31.601H46.6924V18.7862Z" fill="#910748"/>
<path d="M58.1908 27.6649C58.2809 29.1074 59.4859 30.2592 60.995 30.2592C62.2901 30.2592 62.9883 29.633 63.4838 29.085L64.6213 30.1697C63.9794 30.9972 62.7406 31.7799 60.9724 31.7799C58.4498 31.7799 56.4902 29.879 56.4902 27.2959C56.4902 24.7128 58.2583 22.8118 60.7134 22.8118C63.1685 22.8118 64.8803 24.7463 64.8803 27.2959C64.8803 27.3741 64.8803 27.4971 64.8578 27.6649H58.1908ZM58.3372 26.2H63.0559C62.7969 25.1042 61.8058 24.3326 60.7697 24.3326C59.6435 24.3326 58.63 25.0818 58.3372 26.2Z" fill="#910748"/>
<path d="M66.1532 35.9958L68.4957 30.7066L64.7905 23.0021H66.6713L69.3854 28.6715L71.8742 23.0021H73.7212L68.0227 35.9958H66.1645H66.1532Z" fill="#910748"/>
<path d="M75.3651 27.6649C75.4552 29.1074 76.6602 30.2592 78.1693 30.2592C79.4644 30.2592 80.1626 29.633 80.6582 29.0851L81.7956 30.1697C81.1537 30.9972 79.9149 31.78 78.1468 31.78C75.6241 31.78 73.6646 29.879 73.6646 27.2959C73.6646 24.7128 75.4327 22.8118 77.8877 22.8118C80.3428 22.8118 82.0546 24.7464 82.0546 27.2959C82.0546 27.3742 82.0546 27.4972 82.0321 27.6649H75.3651ZM75.5115 26.2H80.2302C79.9712 25.1042 78.9801 24.3326 77.944 24.3326C76.8179 24.3326 75.8043 25.0818 75.5115 26.2Z" fill="#910748"/>
<path d="M83.8902 29.3086C84.7011 29.9349 85.5908 30.2591 86.4467 30.2591C87.2012 30.2591 87.9558 29.8566 87.9558 29.1745C87.9558 28.1904 86.5142 28.1345 85.2417 27.7096C84.1943 27.3629 83.2483 26.7032 83.2483 25.4955C83.2483 23.6504 84.9038 22.8006 86.4579 22.8006C87.7305 22.8006 88.654 23.2032 89.3297 23.7511L88.4288 24.9923C87.8995 24.5898 87.2688 24.3102 86.5706 24.3102C85.7259 24.3102 85.0052 24.7128 85.0052 25.3949C85.0052 25.9763 85.6921 26.1776 86.548 26.4013C87.9107 26.7479 89.7013 27.3518 89.7013 29.1297C89.7013 30.7623 88.1697 31.7687 86.4805 31.7687C85.0953 31.7687 83.9353 31.3438 82.978 30.5834L83.879 29.2975L83.8902 29.3086Z" fill="#910748"/>
<path d="M51.9967 35.0785C53.8437 35.0785 55.5892 35.8277 56.7154 37.0577L55.4766 38.2654C54.7221 37.4379 53.3707 36.8229 51.9967 36.8229C49.3614 36.8229 47.3118 38.914 47.3118 41.676C47.3118 44.438 49.4178 46.5291 52.1544 46.5291C53.8887 46.5291 55.1388 45.5786 55.8595 44.7176L57.1659 45.8917C56.0622 47.3007 54.1477 48.2735 52.1544 48.2735C48.3028 48.2735 45.4648 45.4779 45.4648 41.6872C45.4648 37.8964 48.269 35.1009 51.9855 35.1009L51.9967 35.0785Z" fill="#910748"/>
<path d="M62.5037 39.2831C65.0601 39.2831 66.9859 41.2064 66.9859 43.7671C66.9859 46.3278 65.0714 48.2512 62.5037 48.2512C59.936 48.2512 58.0215 46.3278 58.0215 43.7671C58.0215 41.2064 59.936 39.2831 62.5037 39.2831ZM62.5037 46.6074C64.1029 46.6074 65.2291 45.3438 65.2291 43.7671C65.2291 42.1904 64.1029 40.9268 62.5037 40.9268C60.9045 40.9268 59.7783 42.1904 59.7783 43.7671C59.7783 45.3438 60.9045 46.6074 62.5037 46.6074Z" fill="#910748"/>
<path d="M70.0042 39.4733V40.3008C70.3533 39.9206 71.3669 39.2944 72.5494 39.2944C73.8219 39.2944 74.8918 39.8647 75.6126 40.7257C76.4009 39.9429 77.3469 39.2944 78.9123 39.2944C80.1511 39.2944 81.266 39.8423 81.9868 40.7369C82.5161 41.3966 82.7751 42.2353 82.7751 43.6778V48.0724H81.0295V43.4094C81.0295 42.526 80.8493 42.0564 80.534 41.6874C80.1511 41.2289 79.5542 40.9382 78.9123 40.9382C77.6622 40.9382 76.8514 41.5755 76.277 42.1682C76.3671 42.5931 76.4234 43.0851 76.4234 43.689V48.0836H74.6779V43.4206C74.6779 42.5372 74.4977 42.0676 74.1823 41.6986C73.7994 41.2401 73.1688 40.9493 72.5043 40.9493C71.4344 40.9493 70.5673 41.5867 70.0718 42.1794V48.0948H68.3262V39.4957H70.0267L70.0042 39.4733Z" fill="#910748"/>
<path d="M86.1304 52.4668H84.3848V39.4731H86.0853V40.2558C86.8736 39.5737 87.8196 39.283 88.7994 39.283C89.6103 39.283 90.331 39.4843 90.9166 39.8309C92.223 40.6025 93.1465 42.045 93.1465 43.7671C93.1465 45.4891 92.2455 46.9204 90.9392 47.6808C90.3535 48.0275 89.5427 48.2511 88.7656 48.2511C87.7295 48.2511 86.8511 47.9268 86.1529 47.323V52.4668H86.1304ZM86.1304 45.3885C86.716 46.1712 87.6282 46.6185 88.5066 46.6185C90.1846 46.6185 91.3784 45.3214 91.3784 43.7782C91.3784 42.2351 90.2747 40.938 88.5967 40.938C87.5493 40.938 86.6597 41.4635 86.1304 42.168V45.3885Z" fill="#910748"/>
<path d="M101.076 47.2783C100.378 47.9045 99.4321 48.2512 98.4072 48.2512C97.6302 48.2512 96.8193 48.0275 96.2337 47.6809C94.9273 46.9093 94.0264 45.4892 94.0264 43.7671C94.0264 42.0451 94.9498 40.6025 96.2562 39.831C96.8418 39.4843 97.5626 39.2831 98.3734 39.2831C99.3532 39.2831 100.288 39.5738 101.088 40.2559V39.4731H102.788V48.0723H101.088V47.2895L101.076 47.2783ZM101.02 42.1569C100.491 41.4636 99.601 40.9268 98.5536 40.9268C96.8756 40.9268 95.7719 42.2575 95.7719 43.7671C95.7719 45.2767 96.9657 46.6074 98.6437 46.6074C99.5334 46.6074 100.434 46.1713 101.02 45.3774V42.1569Z" fill="#910748"/>
<path d="M106.132 40.2894C106.593 39.8533 107.472 39.2831 108.733 39.2831C109.994 39.2831 111.143 39.8645 111.886 40.8038C112.438 41.4971 112.731 42.3805 112.731 43.8566V48.0611H110.986V43.7559C110.986 42.6601 110.783 42.1457 110.467 41.7655C110.062 41.2511 109.398 40.9268 108.677 40.9268C107.539 40.9268 106.706 41.5307 106.188 42.1569V48.0723H104.442V39.4731H106.143V40.3006L106.132 40.2894Z" fill="#910748"/>
<path d="M114.443 52.4669L116.786 47.1778L113.081 39.4732H114.961L117.675 45.1426L120.164 39.4732H122.011L116.313 52.4669H114.455H114.443Z" fill="#910748"/>
<path d="M12.208 0V22.5098L33.5605 0H12.208Z" fill="#910748"/>
<path d="M12.208 26.334V50.1969H34.788L12.208 26.334Z" fill="#910748"/>
<path d="M10.4176 0H0.37207V9.97454H10.4176V0Z" fill="#910748"/>
<path d="M0.37207 14.3915V25.0817L10.4176 35.101V24.4108L0.37207 14.3915Z" fill="#910748"/>
<path d="M10.4176 21.7717V11.7972H0.37207L10.4176 21.7717Z" fill="#910748"/>
<path d="M10.4176 50.1969V40.2224L0.37207 50.1969H10.4176Z" fill="#910748"/>
<path d="M0.37207 47.5804L10.4176 37.6506L0.37207 27.7543V47.5804Z" fill="#910748"/>
</g>
<defs>
<clipPath id="clip0_53_1348">
<rect width="121.628" height="52.467" fill="white" transform="translate(0.37207)"/>
</clipPath>
</defs>
</svg>
