<svg viewBox="0 0 26 27" fill="currentColor" xmlns="http://www.w3.org/2000/svg">
<path d="M2.5 18V3H0V0.5H3.75C4.1 0.5 4.39583 0.620832 4.6375 0.862499C4.87917 1.10417 5 1.4 5 1.75V16.75H20.55L23.05 6.75H7.5V4.25H24.65C25.05 4.25 25.375 4.40833 25.625 4.725C25.875 5.04167 25.9583 5.4 25.875 5.8L22.725 18.3C22.6583 18.5833 22.5125 18.8125 22.2875 18.9875C22.0625 19.1625 21.8083 19.25 21.525 19.25H3.75C3.4 19.25 3.10417 19.1292 2.8625 18.8875C2.62083 18.6458 2.5 18.35 2.5 18ZM5 26.75C4.31667 26.75 3.72917 26.5042 3.2375 26.0125C2.74583 25.5208 2.5 24.9333 2.5 24.25C2.5 23.5667 2.74583 22.9792 3.2375 22.4875C3.72917 21.9958 4.31667 21.75 5 21.75C5.68333 21.75 6.27083 21.9958 6.7625 22.4875C7.25417 22.9792 7.5 23.5667 7.5 24.25C7.5 24.9333 7.25417 25.5208 6.7625 26.0125C6.27083 26.5042 5.68333 26.75 5 26.75ZM20 26.75C19.3167 26.75 18.7292 26.5042 18.2375 26.0125C17.7458 25.5208 17.5 24.9333 17.5 24.25C17.5 23.5667 17.7458 22.9792 18.2375 22.4875C18.7292 21.9958 19.3167 21.75 20 21.75C20.6833 21.75 21.2708 21.9958 21.7625 22.4875C22.2542 22.9792 22.5 23.5667 22.5 24.25C22.5 24.9333 22.2542 25.5208 21.7625 26.0125C21.2708 26.5042 20.6833 26.75 20 26.75Z"  />
</svg>
