<svg viewBox="0 0 24 44" fill="currentColor" xmlns="http://www.w3.org/2000/svg">
<path d="M1.5964 23.4344H6.41951V43.2903C6.41951 43.6823 6.73716 44 7.12918 44H15.3069C15.699 44 16.0166 43.6823 16.0166 43.2903V23.5279H21.5612C21.9217 23.5279 22.225 23.2574 22.2662 22.8993L23.1083 15.5893C23.1314 15.3882 23.0677 15.1868 22.9331 15.0359C22.7984 14.8849 22.6057 14.7985 22.4034 14.7985H16.0169V10.2162C16.0169 8.83492 16.7606 8.13446 18.2277 8.13446C18.4368 8.13446 22.4034 8.13446 22.4034 8.13446C22.7955 8.13446 23.1131 7.81667 23.1131 7.42479V0.714929C23.1131 0.322903 22.7955 0.00525161 22.4034 0.00525161H16.6487C16.6081 0.00326452 16.5179 0 16.3851 0C15.3866 0 11.9158 0.196013 9.17419 2.71821C6.13649 5.5132 6.55874 8.85976 6.65966 9.43999V14.7983H1.5964C1.20437 14.7983 0.886719 15.116 0.886719 15.508V22.7246C0.886719 23.1166 1.20437 23.4344 1.5964 23.4344Z" />
</svg>
