<svg viewBox="0 0 25 24" fill="currentColor" xmlns="http://www.w3.org/2000/svg">
<path d="M12.499 2.65001C13.4656 1.78334 14.574 1.21251 15.824 0.937506C17.074 0.662506 18.3073 0.691673 19.524 1.02501C20.7906 1.37501 21.8865 2.01667 22.8115 2.95001C23.7365 3.88334 24.374 4.97501 24.724 6.22501C25.0573 7.44167 25.0865 8.67501 24.8115 9.92501C24.5365 11.175 23.9656 12.2833 23.099 13.25L12.499 23.85L1.89897 13.25C1.03231 12.2833 0.461473 11.175 0.186473 9.92501C-0.0885274 8.67501 -0.0593607 7.44167 0.273973 6.22501C0.623973 4.95834 1.26564 3.8625 2.19897 2.93751C3.13231 2.01251 4.22397 1.37501 5.47397 1.02501C6.69064 0.691673 7.92397 0.662506 9.17397 0.937506C10.424 1.21251 11.5323 1.78334 12.499 2.65001ZM21.024 4.70001C20.4073 4.10001 19.6906 3.68334 18.874 3.45001C18.0573 3.21667 17.2323 3.19167 16.399 3.37501C15.5656 3.55834 14.824 3.94167 14.174 4.52501L12.499 6.02501L10.824 4.52501C10.1906 3.94167 9.45314 3.55834 8.61147 3.37501C7.76981 3.19167 6.94064 3.21667 6.12397 3.45001C5.30731 3.68334 4.59064 4.10417 3.97397 4.71251C3.35731 5.32084 2.93231 6.03334 2.69897 6.85001C2.46564 7.66667 2.43647 8.48751 2.61147 9.31251C2.78647 10.1375 3.15731 10.875 3.72397 11.525L12.499 20.325L21.274 11.525C21.8406 10.875 22.2115 10.1375 22.3865 9.31251C22.5615 8.48751 22.5323 7.66667 22.299 6.85001C22.0656 6.03334 21.6406 5.31667 21.024 4.70001Z" />
</svg>
