<svg viewBox="0 0 25 24" fill="currentColor" xmlns="http://www.w3.org/2000/svg">
<path d="M12.499 2.65C13.4656 1.78334 14.574 1.2125 15.824 0.937503C17.074 0.662503 18.3073 0.691669 19.524 1.025C20.7906 1.375 21.8865 2.01667 22.8115 2.95C23.7365 3.88334 24.374 4.975 24.724 6.225C25.0573 7.44167 25.0865 8.675 24.8115 9.925C24.5365 11.175 23.9656 12.2833 23.099 13.25L12.499 23.85L1.89897 13.25C1.03231 12.2833 0.461473 11.175 0.186473 9.925C-0.0885274 8.675 -0.0593607 7.44167 0.273973 6.225C0.623973 4.95834 1.26564 3.8625 2.19897 2.9375C3.13231 2.0125 4.22397 1.375 5.47397 1.025C6.69064 0.691669 7.92397 0.662503 9.17397 0.937503C10.424 1.2125 11.5323 1.78334 12.499 2.65Z" />
</svg>

