<svg viewBox="0 0 46 45" fill="currentColor" xmlns="http://www.w3.org/2000/svg">
<path fill-rule="evenodd" clip-rule="evenodd" d="M23 34.75C29.9035 34.75 35.5 29.2655 35.5 22.5C35.5 15.7345 29.9035 10.25 23 10.25C16.0964 10.25 10.5 15.7345 10.5 22.5C10.5 29.2655 16.0964 34.75 23 34.75ZM23 30.6667C27.6023 30.6667 31.3333 27.0102 31.3333 22.5C31.3333 17.9897 27.6023 14.3333 23 14.3333C18.3976 14.3333 14.6667 17.9897 14.6667 22.5C14.6667 27.0102 18.3976 30.6667 23 30.6667Z"  />
<path d="M35.5003 8.20834C34.3497 8.20834 33.417 9.12244 33.417 10.25C33.417 11.3776 34.3497 12.2917 35.5003 12.2917C36.651 12.2917 37.5837 11.3776 37.5837 10.25C37.5837 9.12244 36.651 8.20834 35.5003 8.20834Z" />
<path fill-rule="evenodd" clip-rule="evenodd" d="M1.44542 6.73028C0.0830078 9.3507 0.0830078 12.781 0.0830078 19.6417V25.3583C0.0830078 32.2189 0.0830078 35.6493 1.44542 38.2696C2.64384 40.5747 4.55609 42.4487 6.90813 43.6231C9.58203 44.9583 13.0824 44.9583 20.083 44.9583H25.9163C32.917 44.9583 36.4174 44.9583 39.0911 43.6231C41.4432 42.4487 43.3555 40.5747 44.5538 38.2696C45.9163 35.6493 45.9163 32.2189 45.9163 25.3583V19.6417C45.9163 12.781 45.9163 9.3507 44.5538 6.73028C43.3555 4.42528 41.4432 2.55127 39.0911 1.37682C36.4174 0.0416565 32.917 0.0416565 25.9163 0.0416565H20.083C13.0824 0.0416565 9.58203 0.0416565 6.90813 1.37682C4.55609 2.55127 2.64384 4.42528 1.44542 6.73028ZM25.9163 4.12499H20.083C16.5139 4.12499 14.0877 4.12817 12.2123 4.27832C10.3856 4.42458 9.45142 4.68969 8.79976 5.0151C7.23174 5.79807 5.9569 7.04741 5.15794 8.58407C4.8259 9.2227 4.55538 10.1382 4.40613 11.9284C4.25292 13.7662 4.24967 16.144 4.24967 19.6417V25.3583C4.24967 28.8561 4.25292 31.2336 4.40613 33.0715C4.55538 34.8619 4.8259 35.7774 5.15794 36.416C5.9569 37.9525 7.23174 39.2018 8.79976 39.9848C9.45142 40.3103 10.3856 40.5755 12.2123 40.7217C14.0877 40.8717 16.5139 40.875 20.083 40.875H25.9163C29.4855 40.875 31.9115 40.8717 33.787 40.7217C35.6138 40.5755 36.548 40.3103 37.1997 39.9848C38.7676 39.2018 40.0424 37.9525 40.8413 36.416C41.1734 35.7774 41.444 34.8619 41.5932 33.0715C41.7463 31.2336 41.7497 28.8561 41.7497 25.3583V19.6417C41.7497 16.144 41.7463 13.7662 41.5932 11.9284C41.444 10.1382 41.1734 9.2227 40.8413 8.58407C40.0424 7.04741 38.7676 5.79807 37.1997 5.0151C36.548 4.68969 35.6138 4.42458 33.787 4.27832C31.9115 4.12817 29.4855 4.12499 25.9163 4.12499Z"/>
</svg>
