 <svg viewBox="0 0 42 42" fill="currentColor" xmlns="http://www.w3.org/2000/svg">
<path fill-rule="evenodd" clip-rule="evenodd" d="M8.50033 0.166656C3.89795 0.166656 0.166992 3.89761 0.166992 8.49999V33.5C0.166992 38.1023 3.89795 41.8333 8.50033 41.8333H33.5003C38.1026 41.8333 41.8337 38.1023 41.8337 33.5V8.49999C41.8337 3.89761 38.1026 0.166656 33.5003 0.166656H8.50033ZM4.33366 8.49999C4.33366 6.1988 6.19914 4.33332 8.50033 4.33332H33.5003C35.8016 4.33332 37.667 6.1988 37.667 8.49999V33.5C37.667 35.8012 35.8016 37.6667 33.5003 37.6667H8.50033C6.19914 37.6667 4.33366 35.8012 4.33366 33.5V8.49999ZM14.7503 18.9167C14.7503 17.766 13.8176 16.8333 12.667 16.8333C11.5164 16.8333 10.5837 17.766 10.5837 18.9167V31.4167C10.5837 32.5673 11.5164 33.5 12.667 33.5C13.8176 33.5 14.7503 32.5673 14.7503 31.4167V18.9167ZM15.792 11.625C15.792 13.3509 14.3929 14.75 12.667 14.75C10.9411 14.75 9.54199 13.3509 9.54199 11.625C9.54199 9.89909 10.9411 8.49999 12.667 8.49999C14.3929 8.49999 15.792 9.89909 15.792 11.625ZM21.0003 16.8333C21.7076 16.8333 22.3326 17.1858 22.7093 17.7248C23.7772 17.1462 24.9662 16.8333 26.2087 16.8333C30.7074 16.8333 33.5003 20.8454 33.5003 24.2737V24.2896V24.3052V24.321V24.3369V24.3527V24.3687V24.3846V24.4006V24.4167V24.4327V24.4489V24.465V24.4812V24.4975V24.5137V24.53V24.5462V24.5627V24.5792V24.5954V24.6121V24.6285V24.645V24.6617V24.6781V24.6948V24.7114V24.7283V24.745V24.7619V24.7785V24.7954V24.8123V24.8292V24.8462V24.8631V24.8802V24.8971V24.9142V24.9312V24.9485V24.9656V24.9827V25V25.0173V25.0344V25.0517V25.0692V25.0864V25.1037V25.1212V25.1387V25.156V25.1735V25.191V25.2085V25.2262V25.2437V25.2614V25.2789V25.2967V25.3144V25.3321V25.3498V25.3675V25.3852V25.4031V25.4208V25.4387V25.4567V25.4746V25.4923V25.5104V25.5283V25.5462V25.5642V25.5823V25.6002V25.6183V25.6362V25.6544V25.6725V25.6906V25.7087V25.7269V25.745V25.7633V25.7814V25.7998V25.8179V25.8362V25.8544V25.8727V25.891V25.9094V25.9277V25.946V25.9644V25.9827V26.001V26.0194V26.0379V26.0562V26.0748V26.0931V26.1117V26.13V26.1485V26.1671V26.1856V26.2039V26.2225V26.241V26.2596V26.2781V26.2967V26.3152V26.3337V26.3525V26.371V26.3896V26.4081V26.4269V26.4454V26.4639V26.4827V26.5012V26.52V26.5385V26.5571V26.5758V26.5946V26.6131V26.6319V26.6504V26.6692V26.6879V26.7064V26.7252V26.7437V26.7625V26.7812V26.7998V26.8185V26.8373V26.8558V26.8746V26.8933V26.9121V26.9306V26.9494V26.9681V26.9867V27.0054V27.0242V27.0427V27.0614V27.08V27.0987V27.1173V27.136V27.1548V27.1733V27.1921V27.2106V27.2292V27.2479V27.2664V27.2852V27.3037V27.3223V27.3408V27.3596V27.3781V27.3967V27.4152V27.4337V27.4523V27.4708V27.4894V27.5079V27.5264V27.545V27.5633V27.5819V27.6004V27.6187V27.6373V27.6556V27.6742V27.6925V27.711V27.7294V27.7477V27.766V27.7844V27.8027V27.821V27.8394V27.8577V27.876V27.8942V27.9125V27.9306V27.9489V27.9671V27.9852V28.0033V28.0214V28.0396V28.0577V28.0758V28.0939V28.1121V28.13V28.1481V28.166V28.1839V28.2021V28.22V28.2379V28.2556V28.2735V28.2914V28.3094V28.3271V28.3448V28.3627V28.3804V28.3981V28.4158V28.4335V28.451V28.4687V28.4862V28.5039V28.5214V28.5389V28.5564V28.5739V28.5914V28.6087V28.6262V28.6435V28.6608V28.6781V28.6954V28.7127V28.73V28.7471V28.7644V28.7814V28.7985V28.8156V28.8327V28.8498V28.8667V28.8837V28.9006V28.9175V28.9344V28.9512V28.9679V28.9848V29.0014V29.0181V29.0348V29.0514V29.0681V29.0846V29.101V29.1177V29.1342V29.1504V29.1669V29.1833V29.1996V29.2158V29.2321V29.2483V29.2644V29.2806V29.2967V29.3127V29.3287V29.3448V29.3606V29.3767V29.3925V29.4083V29.4239V29.4398V29.4554V29.471V29.4867V29.5023V29.5179V29.5333V29.5487V29.5642V29.5796V29.5948V29.6102V29.6254V29.6406V29.6556V29.6708V29.6858V29.7008V29.7158V29.7308V29.7456V29.7604V29.7752V29.79V29.8046V29.8192V29.8337V29.8483V29.8629V29.8773V29.8917V29.906V29.9204V29.9346V29.9487V29.9629V29.9771V29.991V30.005V30.0189V30.0329V30.0469V30.0606V30.0744V30.0879V30.1017V30.1152V30.1287V30.1421V30.1556V30.1689V30.1823V30.1954V30.2087V30.2219V30.235V30.2479V30.2608V30.2737V30.2867V30.2996V30.3123V30.325V30.3375V30.3502V30.3627V30.375V30.3875V30.3998V30.4121V30.4244V30.4364V30.4485V30.4606V30.4725V30.4844V30.4962V30.5081V30.5198V30.5314V30.5431V30.5546V30.566V30.5775V30.5887V30.6002V30.6112V30.6225V30.6335V30.6446V30.6556V30.6664V30.6773V30.6881V30.6987V30.7094V30.72V30.7304V30.7408V30.7512V30.7614V30.7717V30.7819V30.7919V30.8019V30.8119V30.8217V30.8314V30.8412V30.8508V30.8604V30.87V30.8794V30.8887V30.8981V30.9073V30.9164V30.9256V30.9346V30.9435V30.9523V30.961V30.9698V30.9785V30.9871V30.9954V31.0039V31.0123V31.0204V31.0287V31.0369V31.0448V31.0527V31.0606V31.0683V31.076V31.0837V31.0912V31.0987V31.1062V31.1135V31.1208V31.1279V31.135V31.1421V31.1489V31.1558V31.1625V31.1692V31.1758V31.1823V31.1887V31.195V31.2012V31.2075V31.2135V31.2196V31.2256V31.2314V31.2371V31.2427V31.2483V31.2539V31.2594V31.2646V31.2698V31.275V31.28V31.285V31.29V31.2948V31.2996V31.3042V31.3085V31.3131V31.3175V31.3217V31.3258V31.33V31.3339V31.3379V31.3417V31.3454V31.3492V31.3527V31.356V31.3594V31.3627V31.3658V31.3689V31.3719V31.3748V31.3777V31.3804V31.3829V31.3854V31.3879V31.3902V31.3925V31.3946V31.3985V31.4021V31.4054V31.4081V31.4106V31.4133V31.4158C33.5003 32.5664 32.5676 33.5 31.417 33.5C30.2664 33.5 29.3337 32.5673 29.3337 31.4167V31.4142V31.4117V31.4094V31.4069V31.4037V31.4004V31.3967V31.3925V31.3902V31.3879V31.3854V31.3829V31.3804V31.3777V31.3748V31.3719V31.3689V31.3658V31.3627V31.3594V31.356V31.3527V31.3492V31.3454V31.3417V31.3379V31.3339V31.33V31.3258V31.3217V31.3175V31.3131V31.3085V31.3042V31.2996V31.2948V31.29V31.285V31.28V31.275V31.2698V31.2646V31.2594V31.2539V31.2483V31.2427V31.2371V31.2314V31.2256V31.2196V31.2135V31.2075V31.2012V31.195V31.1887V31.1823V31.1758V31.1692V31.1625V31.1558V31.1489V31.1421V31.135V31.1279V31.1208V31.1135V31.1062V31.0987V31.0912V31.0837V31.076V31.0683V31.0606V31.0527V31.0448V31.0369V31.0287V31.0204V31.0123V31.0039V30.9954V30.9871V30.9785V30.9698V30.961V30.9523V30.9435V30.9346V30.9256V30.9164V30.9073V30.8981V30.8887V30.8794V30.87V30.8604V30.8508V30.8412V30.8314V30.8217V30.8119V30.8019V30.7919V30.7819V30.7717V30.7614V30.7512V30.7408V30.7304V30.72V30.7094V30.6987V30.6881V30.6773V30.6664V30.6556V30.6446V30.6335V30.6225V30.6112V30.6002V30.5887V30.5775V30.566V30.5546V30.5431V30.5314V30.5198V30.5081V30.4962V30.4844V30.4725V30.4606V30.4485V30.4364V30.4244V30.4121V30.3998V30.3875V30.375V30.3627V30.3502V30.3375V30.325V30.3123V30.2996V30.2867V30.2737V30.2608V30.2479V30.235V30.2219V30.2087V30.1954V30.1823V30.1689V30.1556V30.1421V30.1287V30.1152V30.1017V30.0879V30.0744V30.0606V30.0469V30.0329V30.0189V30.005V29.991V29.9771V29.9629V29.9487V29.9346V29.9204V29.906V29.8917V29.8773V29.8629V29.8483V29.8337V29.8192V29.8046V29.79V29.7752V29.7604V29.7456V29.7308V29.7158V29.7008V29.6858V29.6708V29.6556V29.6406V29.6254V29.6102V29.5948V29.5796V29.5642V29.5487V29.5333V29.5179V29.5023V29.4867V29.471V29.4554V29.4398V29.4239V29.4083V29.3925V29.3767V29.3606V29.3448V29.3287V29.3127V29.2967V29.2806V29.2644V29.2483V29.2321V29.2158V29.1996V29.1833V29.1669V29.1504V29.1342V29.1177V29.101V29.0846V29.0681V29.0514V29.0348V29.0181V29.0014V28.9848V28.9679V28.9512V28.9344V28.9175V28.9006V28.8837V28.8667V28.8498V28.8327V28.8156V28.7985V28.7814V28.7644V28.7471V28.73V28.7127V28.6954V28.6781V28.6608V28.6435V28.6262V28.6087V28.5914V28.5739V28.5564V28.5389V28.5214V28.5039V28.4862V28.4687V28.451V28.4335V28.4158V28.3981V28.3804V28.3627V28.3448V28.3271V28.3094V28.2914V28.2735V28.2556V28.2379V28.22V28.2021V28.1839V28.166V28.1481V28.13V28.1121V28.0939V28.0758V28.0577V28.0396V28.0214V28.0033V27.9852V27.9671V27.9489V27.9306V27.9125V27.8942V27.876V27.8577V27.8394V27.821V27.8027V27.7844V27.766V27.7477V27.7294V27.711V27.6925V27.6742V27.6556V27.6373V27.6187V27.6004V27.5819V27.5633V27.545V27.5264V27.5079V27.4894V27.4708V27.4523V27.4337V27.4152V27.3967V27.3781V27.3596V27.3408V27.3223V27.3037V27.2852V27.2664V27.2479V27.2292V27.2106V27.1921V27.1733V27.1548V27.136V27.1173V27.0987V27.08V27.0614V27.0427V27.0242V27.0054V26.9867V26.9681V26.9494V26.9306V26.9121V26.8933V26.8746V26.8558V26.8373V26.8185V26.7998V26.7812V26.7625V26.7437V26.7252V26.7064V26.6879V26.6692V26.6504V26.6319V26.6131V26.5946V26.5758V26.5571V26.5385V26.52V26.5012V26.4827V26.4639V26.4454V26.4269V26.4081V26.3896V26.371V26.3525V26.3337V26.3152V26.2967V26.2781V26.2596V26.241V26.2225V26.2039V26.1856V26.1671V26.1485V26.13V26.1117V26.0931V26.0748V26.0562V26.0379V26.0194V26.001V25.9827V25.9644V25.946V25.9277V25.9094V25.891V25.8727V25.8544V25.8362V25.8179V25.7998V25.7814V25.7633V25.745V25.7269V25.7087V25.6906V25.6725V25.6544V25.6362V25.6183V25.6002V25.5823V25.5642V25.5462V25.5283V25.5104V25.4923V25.4746V25.4567V25.4387V25.4208V25.4031V25.3852V25.3675V25.3498V25.3321V25.3144V25.2967V25.2789V25.2614V25.2437V25.2262V25.2085V25.191V25.1735V25.156V25.1387V25.1212V25.1037V25.0864V25.0692V25.0517V25.0344V25.0173V25V24.9827V24.9656V24.9485V24.9312V24.9142V24.8971V24.8802V24.8631V24.8462V24.8292V24.8123V24.7954V24.7785V24.7619V24.745V24.7283V24.7114V24.6948V24.6781V24.6617V24.645V24.6285V24.6121V24.5954V24.5792V24.5627V24.5462V24.53V24.5137V24.4975V24.4812V24.465V24.4489V24.4327V24.4167V24.4006V24.3846V24.3687V24.3527V24.3369V24.321V24.3052V24.2896V24.2737C29.3337 22.6733 27.9599 21 26.2087 21C25.1168 21 23.9116 21.5935 23.0837 23.0064V23.0121V23.0335V23.055V23.0764V23.0981V23.1196V23.1412V23.1629V23.1848V23.2064V23.2281V23.25V23.2719V23.2937V23.3156V23.3375V23.3596V23.3817V23.4035V23.4256V23.4477V23.4698V23.4921V23.5142V23.5364V23.5587V23.5808V23.6033V23.6256V23.6479V23.6702V23.6927V23.7152V23.7375V23.76V23.7825V23.805V23.8277V23.8502V23.8729V23.8954V23.9181V23.9408V23.9635V23.9862V24.0089V24.0317V24.0546V24.0773V24.1002V24.1229V24.1458V24.1687V24.1917V24.2146V24.2375V24.2604V24.2835V24.3064V24.3294V24.3525V24.3756V24.3985V24.4217V24.4448V24.4679V24.491V24.5142V24.5373V24.5604V24.5837V24.6069V24.63V24.6533V24.6764V24.6998V24.7231V24.7462V24.7696V24.7929V24.8162V24.8394V24.8627V24.886V24.9094V24.9329V24.9562V24.9796V25.0029V25.0262V25.0496V25.0731V25.0964V25.1198V25.1433V25.1667V25.1902V25.2135V25.2371V25.2604V25.2837V25.3073V25.3308V25.3542V25.3777V25.401V25.4246V25.4479V25.4714V25.495V25.5183V25.5419V25.5652V25.5887V25.6123V25.6356V25.6592V25.6825V25.706V25.7294V25.7529V25.7762V25.7998V25.8231V25.8467V25.87V25.8935V25.9169V25.9404V25.9637V25.9871V26.0104V26.0339V26.0573V26.0806V26.1039V26.1273V26.1506V26.1739V26.1973V26.2206V26.2439V26.2673V26.2906V26.3137V26.3371V26.3604V26.3835V26.4069V26.43V26.4533V26.4764V26.4996V26.5227V26.5458V26.5692V26.5923V26.6152V26.6383V26.6614V26.6846V26.7075V26.7306V26.7535V26.7767V26.7996V26.8225V26.8454V26.8683V26.8912V26.9142V26.9371V26.9598V26.9827V27.0054V27.0283V27.051V27.0737V27.0964V27.1192V27.1419V27.1644V27.1871V27.2096V27.2323V27.2548V27.2773V27.2998V27.3223V27.3448V27.3671V27.3896V27.4119V27.4342V27.4564V27.4787V27.501V27.5233V27.5456V27.5677V27.5898V27.6119V27.6339V27.656V27.6781V27.7002V27.7221V27.7439V27.7658V27.7877V27.8096V27.8314V27.8531V27.8748V27.8967V27.9183V27.9398V27.9614V27.9831V28.0046V28.026V28.0475V28.0689V28.0902V28.1117V28.1329V28.1542V28.1754V28.1967V28.2177V28.2389V28.26V28.281V28.3019V28.3229V28.3437V28.3646V28.3854V28.4062V28.4271V28.4477V28.4683V28.4889V28.5096V28.53V28.5506V28.571V28.5914V28.6117V28.6321V28.6523V28.6725V28.6927V28.7127V28.7329V28.7529V28.7729V28.7927V28.8127V28.8325V28.8523V28.8721V28.8917V28.9112V28.9308V28.9504V28.97V28.9894V29.0087V29.0279V29.0473V29.0664V29.0856V29.1048V29.1237V29.1429V29.1619V29.1806V29.1996V29.2183V29.2371V29.2556V29.2744V29.2929V29.3114V29.3298V29.3481V29.3664V29.3848V29.4029V29.421V29.4392V29.4573V29.4752V29.4931V29.511V29.5287V29.5464V29.5642V29.5819V29.5994V29.6169V29.6342V29.6514V29.6687V29.686V29.7033V29.7204V29.7373V29.7544V29.7712V29.7881V29.8048V29.8214V29.8381V29.8548V29.8712V29.8877V29.9039V29.9202V29.9364V29.9527V29.9687V29.9848V30.0006V30.0167V30.0325V30.0481V30.0637V30.0794V30.095V30.1104V30.1256V30.141V30.1562V30.1714V30.1864V30.2014V30.2164V30.2312V30.246V30.2606V30.2754V30.2898V30.3044V30.3187V30.3331V30.3473V30.3614V30.3754V30.3896V30.4035V30.4173V30.431V30.4448V30.4583V30.4719V30.4852V30.4985V30.5119V30.5252V30.5381V30.5512V30.5642V30.5771V30.5898V30.6025V30.6152V30.6277V30.64V30.6525V30.6648V30.6769V30.6889V30.701V30.7129V30.7248V30.7364V30.7481V30.7598V30.7712V30.7825V30.7939V30.805V30.8162V30.8273V30.8381V30.8489V30.8598V30.8704V30.881V30.8914V30.9019V30.9121V30.9223V30.9325V30.9425V30.9525V30.9623V30.9719V30.9817V30.991V31.0006V31.01V31.0192V31.0283V31.0373V31.0462V31.0552V31.0639V31.0725V31.0812V31.0896V31.0979V31.1062V31.1144V31.1225V31.1304V31.1383V31.146V31.1537V31.1612V31.1687V31.176V31.1833V31.1904V31.1975V31.2044V31.2112V31.2179V31.2246V31.231V31.2375V31.2437V31.25V31.256V31.2621V31.2679V31.2735V31.2794V31.2848V31.2902V31.2956V31.3008V31.3058V31.3108V31.3158V31.3206V31.3252V31.3298V31.3342V31.3385V31.3427V31.3469V31.3508V31.3548V31.3585V31.3621V31.3656V31.3689V31.3723V31.3756V31.3785V31.3814V31.3844V31.3871V31.3898V31.3923V31.3946V31.3969V31.3989V31.4029V31.4062V31.4092V31.4117V31.4144V31.4164C23.0837 32.5671 22.1509 33.5 21.0003 33.5C19.8497 33.5 18.917 32.5673 18.917 31.4167V31.4144V31.4117V31.4092V31.4062V31.4029V31.3989V31.3969V31.3946V31.3923V31.3898V31.3871V31.3844V31.3814V31.3785V31.3756V31.3723V31.3689V31.3656V31.3621V31.3585V31.3548V31.3508V31.3469V31.3427V31.3385V31.3342V31.3298V31.3252V31.3206V31.3158V31.3108V31.3058V31.3008V31.2956V31.2902V31.2848V31.2794V31.2735V31.2679V31.2621V31.256V31.25V31.2437V31.2375V31.231V31.2246V31.2179V31.2112V31.2044V31.1975V31.1904V31.1833V31.176V31.1687V31.1612V31.1537V31.146V31.1383V31.1304V31.1225V31.1144V31.1062V31.0979V31.0896V31.0812V31.0725V31.0639V31.0552V31.0462V31.0373V31.0283V31.0192V31.01V31.0006V30.991V30.9817V30.9719V30.9623V30.9525V30.9425V30.9325V30.9223V30.9121V30.9019V30.8914V30.881V30.8704V30.8598V30.8489V30.8381V30.8273V30.8162V30.805V30.7939V30.7825V30.7712V30.7598V30.7481V30.7364V30.7248V30.7129V30.701V30.6889V30.6769V30.6648V30.6525V30.64V30.6277V30.6152V30.6025V30.5898V30.5771V30.5642V30.5512V30.5381V30.5252V30.5119V30.4985V30.4852V30.4719V30.4583V30.4448V30.431V30.4173V30.4035V30.3896V30.3754V30.3614V30.3473V30.3331V30.3187V30.3044V30.2898V30.2754V30.2606V30.246V30.2312V30.2164V30.2014V30.1864V30.1714V30.1562V30.141V30.1256V30.1104V30.095V30.0794V30.0637V30.0481V30.0325V30.0167V30.0006V29.9848V29.9687V29.9527V29.9364V29.9202V29.9039V29.8877V29.8712V29.8548V29.8381V29.8214V29.8048V29.7881V29.7712V29.7544V29.7373V29.7204V29.7033V29.686V29.6687V29.6514V29.6342V29.6169V29.5994V29.5819V29.5642V29.5464V29.5287V29.511V29.4931V29.4752V29.4573V29.4392V29.421V29.4029V29.3848V29.3664V29.3481V29.3298V29.3114V29.2929V29.2744V29.2556V29.2371V29.2183V29.1996V29.1806V29.1619V29.1429V29.1237V29.1048V29.0856V29.0664V29.0473V29.0279V29.0087V28.9894V28.97V28.9504V28.9308V28.9112V28.8917V28.8721V28.8523V28.8325V28.8127V28.7927V28.7729V28.7529V28.7329V28.7127V28.6927V28.6725V28.6523V28.6321V28.6117V28.5914V28.571V28.5506V28.53V28.5096V28.4889V28.4683V28.4477V28.4271V28.4062V28.3854V28.3646V28.3437V28.3229V28.3019V28.281V28.26V28.2389V28.2177V28.1967V28.1754V28.1542V28.1329V28.1117V28.0902V28.0689V28.0475V28.026V28.0046V27.9831V27.9614V27.9398V27.9183V27.8967V27.8748V27.8531V27.8314V27.8096V27.7877V27.7658V27.7439V27.7221V27.7002V27.6781V27.656V27.6339V27.6119V27.5898V27.5677V27.5456V27.5233V27.501V27.4787V27.4564V27.4342V27.4119V27.3896V27.3671V27.3448V27.3223V27.2998V27.2773V27.2548V27.2323V27.2096V27.1871V27.1644V27.1419V27.1192V27.0964V27.0737V27.051V27.0283V27.0054V26.9827V26.9598V26.9371V26.9142V26.8912V26.8683V26.8454V26.8225V26.7996V26.7767V26.7535V26.7306V26.7075V26.6846V26.6614V26.6383V26.6152V26.5923V26.5692V26.5458V26.5227V26.4996V26.4764V26.4533V26.43V26.4069V26.3835V26.3604V26.3371V26.3137V26.2906V26.2673V26.2439V26.2206V26.1973V26.1739V26.1506V26.1273V26.1039V26.0806V26.0573V26.0339V26.0104V25.9871V25.9637V25.9404V25.9169V25.8935V25.87V25.8467V25.8231V25.7998V25.7762V25.7529V25.7294V25.706V25.6825V25.6592V25.6356V25.6123V25.5887V25.5652V25.5419V25.5183V25.495V25.4714V25.4479V25.4246V25.401V25.3777V25.3542V25.3308V25.3073V25.2837V25.2604V25.2371V25.2135V25.1902V25.1667V25.1433V25.1198V25.0964V25.0731V25.0496V25.0262V25.0029V24.9796V24.9562V24.9329V24.9094V24.886V24.8627V24.8394V24.8162V24.7929V24.7696V24.7462V24.7231V24.6998V24.6764V24.6533V24.63V24.6069V24.5837V24.5604V24.5373V24.5142V24.491V24.4679V24.4448V24.4217V24.3985V24.3756V24.3525V24.3294V24.3064V24.2835V24.2604V24.2375V24.2146V24.1917V24.1687V24.1458V24.1229V24.1002V24.0773V24.0546V24.0317V24.0089V23.9862V23.9635V23.9408V23.9181V23.8954V23.8729V23.8502V23.8277V23.805V23.7825V23.76V23.7375V23.7152V23.6927V23.6702V23.6479V23.6256V23.6033V23.5808V23.5587V23.5364V23.5142V23.4921V23.4698V23.4477V23.4256V23.4035V23.3817V23.3596V23.3375V23.3156V23.2937V23.2719V23.25V23.2281V23.2064V23.1848V23.1629V23.1412V23.1196V23.0981V23.0764V23.055V23.0335V23.0121V22.9906V22.9692V22.9477V22.9264V22.9052V22.8839V22.8627V22.8417V22.8204V22.7994V22.7783V22.7573V22.7364V22.7154V22.6946V22.6737V22.6529V22.6321V22.6114V22.5908V22.5702V22.5496V22.5289V22.5085V22.4881V22.48V22.4717V22.4635V22.4552V22.4471V22.4387V22.4304V22.4221V22.4137V22.4054V22.3971V22.3887V22.3804V22.3721V22.3635V22.3552V22.3467V22.3381V22.3298V22.3212V22.3127V22.3042V22.2956V22.2871V22.2785V22.27V22.2614V22.2527V22.2442V22.2354V22.2269V22.2181V22.2094V22.2008V22.1921V22.1833V22.1746V22.1658V22.1571V22.1483V22.1396V22.1306V22.1219V22.1131V22.1042V22.0954V22.0864V22.0777V22.0687V22.0598V22.051V22.0421V22.0331V22.0242V22.0152V22.0062V21.9973V21.9883V21.9794V21.9702V21.9612V21.9523V21.9433V21.9342V21.9252V21.916V21.9071V21.8979V21.8887V21.8798V21.8706V21.8614V21.8525V21.8433V21.8342V21.825V21.8158V21.8067V21.7975V21.7883V21.7792V21.77V21.7608V21.7514V21.7423V21.7331V21.7239V21.7146V21.7054V21.6962V21.6869V21.6777V21.6683V21.6592V21.6498V21.6406V21.6312V21.6221V21.6127V21.6033V21.5942V21.5848V21.5754V21.5662V21.5569V21.5475V21.5381V21.5289V21.5196V21.5102V21.5008V21.4914V21.4821V21.4729V21.4635V21.4542V21.4448V21.4354V21.426V21.4167V21.4073V21.3979V21.3885V21.3792V21.3698V21.3604V21.351V21.3417V21.3323V21.3229V21.3135V21.3042V21.2948V21.2854V21.276V21.2667V21.2573V21.2479V21.2385V21.2292V21.2198V21.2102V21.2008V21.1914V21.1821V21.1727V21.1633V21.1539V21.1446V21.1352V21.1258V21.1167V21.1073V21.0979V21.0885V21.0792V21.0698V21.0604V21.051V21.0417V21.0323V21.0231V21.0137V21.0044V20.995V20.9858V20.9764V20.9671V20.9577V20.9485V20.9392V20.9298V20.9206V20.9112V20.9021V20.8927V20.8835V20.8742V20.865V20.8556V20.8464V20.8373V20.8279V20.8187V20.8096V20.8002V20.791V20.7819V20.7727V20.7635V20.7544V20.7452V20.736V20.7269V20.7177V20.7085V20.6994V20.6902V20.6812V20.6721V20.6629V20.6537V20.6448V20.6356V20.6267V20.6175V20.6085V20.5994V20.5904V20.5814V20.5725V20.5633V20.5544V20.5454V20.5364V20.5275V20.5185V20.5096V20.5006V20.4919V20.4829V20.4739V20.4652V20.4562V20.4473V20.4385V20.4298V20.4208V20.4121V20.4033V20.3946V20.3858V20.3769V20.3681V20.3596V20.3508V20.3421V20.3333V20.3248V20.316V20.3073V20.2987V20.2902V20.2814V20.2729V20.2644V20.2558V20.2473V20.2387V20.2302V20.2217V20.2131V20.2048V20.1962V20.1877V20.1794V20.171V20.1625V20.1542V20.1458V20.1375V20.1292V20.1208V20.1125V20.1042V20.096V20.0877V20.0796V20.0712V20.0631V20.055V20.0467V20.0385V20.0304V20.0225V20.0144V20.0062V19.9981V19.9902V19.9821V19.9742V19.9662V19.9583V19.9504V19.9425V19.9346V19.9267V19.9187V19.911V19.9031V19.8954V19.8877V19.8798V19.8721V19.8644V19.8567V19.8492V19.8414V19.8337V19.8262V19.8185V19.811V19.8035V19.796V19.7885V19.781V19.7735V19.7662V19.7587V19.7514V19.7439V19.7367V19.7294V19.7221V19.7148V19.7077V19.7004V19.6933V19.686V19.6789V19.6719V19.6648V19.6577V19.6506V19.6435V19.6367V19.6296V19.6227V19.6158V19.6089V19.6021V19.5952V19.5883V19.5817V19.5748V19.5681V19.5614V19.5548V19.5481V19.5414V19.5348V19.5283V19.5217V19.5152V19.5087V19.5023V19.4958V19.4894V19.4831V19.4767V19.4704V19.4642V19.4579V19.4517V19.4454V19.4392V19.4331V19.4269V19.4208V19.4148V19.4087V19.4027V19.3969V19.3908V19.385V19.3789V19.3731V19.3673V19.3617V19.3558V19.3502V19.3444V19.3387V19.3331V19.3275V19.3219V19.3164V19.3108V19.3054V19.3V19.2946V19.2892V19.2839V19.2785V19.2733V19.2681V19.2629V19.2577V19.2525V19.2475V19.2423V19.2373V19.2323V19.2273V19.2223V19.2175V19.2125V19.2077V19.2029V19.1981V19.1935V19.1887V19.1842V19.1794V19.1748V19.1702V19.1658V19.1612V19.1569V19.1525V19.1481V19.1437V19.1394V19.1352V19.1308V19.1267V19.1225V19.1185V19.1144V19.1104V19.1062V19.1023V19.0985V19.0946V19.0906V19.0869V19.0831V19.0794V19.0756V19.0721V19.0683V19.0648V19.0612V19.0577V19.0544V19.0508V19.0475V19.0442V19.0408V19.0375V19.0344V19.0312V19.0281V19.025V19.0219V19.0187V19.0158V19.0129V19.01V19.0071V19.0044V19.0017V18.9987V18.9962V18.9935V18.9908V18.9883V18.9858V18.9833V18.9808V18.9785V18.9762V18.9739V18.9717V18.9694V18.9673V18.965V18.9629V18.9589V18.9552V18.9514V18.9479V18.9446V18.9414V18.9385V18.9356V18.9331V18.9306V18.9275V18.9254V18.9229V18.9208V18.9183C18.917 17.7677 19.8497 16.8333 21.0003 16.8333Z"  />
</svg>
