<svg viewBox="0 0 18 22" fill="currentColor" xmlns="http://www.w3.org/2000/svg">
<path d="M9 18.9L13.96 13.94C14.8533 13.0467 15.46 11.9933 15.78 10.78C16.0867 9.59334 16.0867 8.40667 15.78 7.22C15.46 6.00667 14.85 4.95 13.95 4.05C13.05 3.15 11.9933 2.54 10.78 2.22C9.59333 1.91333 8.40667 1.91333 7.22 2.22C6.00667 2.54 4.95 3.15 4.05 4.05C3.15 4.95 2.54 6.00667 2.22 7.22C1.91333 8.40667 1.91333 9.59334 2.22 10.78C2.54 11.9933 3.15333 13.0533 4.06 13.96L9 18.9ZM9 21.72L2.64 15.36C1.48 14.2133 0.7 12.8533 0.3 11.28C-0.1 9.76 -0.1 8.24 0.3 6.72C0.7 5.14667 1.47667 3.78333 2.63 2.63C3.78333 1.47667 5.14667 0.700001 6.72 0.300001C8.24 -0.0999988 9.76 -0.0999988 11.28 0.300001C12.8533 0.700001 14.2167 1.47667 15.37 2.63C16.5233 3.78333 17.3 5.14667 17.7 6.72C18.1 8.24 18.1 9.76 17.7 11.28C17.3 12.8533 16.52 14.2133 15.36 15.36L9 21.72ZM9 11C9.54667 11 10.0167 10.8033 10.41 10.41C10.8033 10.0167 11 9.54667 11 9C11 8.45334 10.8033 7.98333 10.41 7.59C10.0167 7.19667 9.54667 7 9 7C8.45333 7 7.98333 7.19667 7.59 7.59C7.19667 7.98333 7 8.45334 7 9C7 9.54667 7.19667 10.0167 7.59 10.41C7.98333 10.8033 8.45333 11 9 11ZM9 13C8.28 13 7.61333 12.82 7 12.46C6.38667 12.1 5.9 11.6133 5.54 11C5.18 10.3867 5 9.72 5 9C5 8.28 5.18 7.61334 5.54 7C5.9 6.38667 6.38667 5.9 7 5.54C7.61333 5.18 8.28 5 9 5C9.72 5 10.3867 5.18 11 5.54C11.6133 5.9 12.1 6.38667 12.46 7C12.82 7.61334 13 8.28 13 9C13 9.72 12.82 10.3867 12.46 11C12.1 11.6133 11.6133 12.1 11 12.46C10.3867 12.82 9.72 13 9 13Z" />
</svg>
