<svg viewBox="0 0 26 26" fill="currentColor" xmlns="http://www.w3.org/2000/svg">
<path d="M18.6449 16.2145H17.5238L17.1265 15.8312C18.682 14.0188 19.4749 11.6742 19.3386 9.28968C19.2023 6.90517 18.1475 4.6662 16.3956 3.04283C14.6436 1.41947 12.3309 0.537977 9.94296 0.583431C7.55499 0.628885 5.27749 1.59775 3.58864 3.2866C1.89978 4.97546 0.930917 7.25295 0.885463 9.64093C0.84001 12.0289 1.7215 14.3416 3.34486 16.0935C4.96823 17.8454 7.2072 18.9003 9.59172 19.0365C11.9762 19.1728 14.3208 18.38 16.1332 16.8245L16.5166 17.2218V18.3429L23.6135 25.4301L25.7279 23.3158L18.6449 16.2145ZM10.1284 16.2145C8.86513 16.2145 7.63024 15.84 6.57988 15.1381C5.52952 14.4363 4.71087 13.4388 4.22744 12.2717C3.74402 11.1046 3.61753 9.82034 3.86398 8.58136C4.11043 7.34237 4.71874 6.2043 5.612 5.31104C6.50525 4.41778 7.64333 3.80947 8.88231 3.56302C10.1213 3.31657 11.4055 3.44306 12.5726 3.92648C13.7397 4.40991 14.7373 5.22857 15.4391 6.27892C16.1409 7.32928 16.5155 8.56417 16.5155 9.82742C16.5166 10.6665 16.3522 11.4976 16.0316 12.273C15.711 13.0484 15.2406 13.753 14.6473 14.3463C14.054 14.9396 13.3494 15.4101 12.574 15.7307C11.7985 16.0512 10.9675 16.2157 10.1284 16.2145Z"  />
</svg>
