<svg viewBox="0 0 41 47" fill="currentColor" xmlns="http://www.w3.org/2000/svg">
<path d="M35.4479 10.3561C35.1378 10.1959 34.836 10.0202 34.5435 9.82977C33.6929 9.26747 32.9131 8.60491 32.2208 7.85637C30.4886 5.87436 29.8416 3.86363 29.6033 2.45584H29.6129C29.4138 1.2873 29.4961 0.53125 29.5086 0.53125H21.6188V31.0395C21.6188 31.4491 21.6188 31.8539 21.6016 32.254C21.6016 32.3037 21.5968 32.3497 21.5939 32.4033C21.5939 32.4253 21.5939 32.4482 21.5891 32.4712C21.5891 32.4769 21.5891 32.4827 21.5891 32.4884C21.506 33.5831 21.1551 34.6405 20.5673 35.5677C19.9796 36.4949 19.173 37.2634 18.2185 37.8057C17.2237 38.3716 16.0985 38.6685 14.954 38.667C11.2781 38.667 8.29884 35.6696 8.29884 31.9678C8.29884 28.266 11.2781 25.2686 14.954 25.2686C15.6499 25.2679 16.3414 25.3774 17.003 25.593L17.0126 17.5597C15.0041 17.3003 12.9637 17.4599 11.02 18.0285C9.07635 18.5971 7.2716 19.5624 5.71964 20.8634C4.35976 22.0449 3.2165 23.4547 2.34132 25.0293C2.00827 25.6036 0.751689 27.911 0.599521 31.6558C0.503818 33.7814 1.14216 35.9835 1.44649 36.8937V36.9128C1.6379 37.4487 2.3796 39.2776 3.58833 40.8194C4.56301 42.0561 5.71455 43.1425 7.00589 44.0436V44.0245L7.02503 44.0436C10.8445 46.6391 15.0794 46.4687 15.0794 46.4687C15.8125 46.4391 18.2682 46.4687 21.057 45.1471C24.1501 43.6819 25.9111 41.4989 25.9111 41.4989C27.0361 40.1945 27.9306 38.708 28.5563 37.1032C29.2703 35.2265 29.5086 32.9756 29.5086 32.076V15.8906C29.6043 15.9481 30.879 16.7912 30.879 16.7912C30.879 16.7912 32.7156 17.9684 35.5809 18.7349C37.6366 19.2804 40.4063 19.3953 40.4063 19.3953V11.5629C39.4358 11.6682 37.4653 11.362 35.4479 10.3561Z" />
</svg>
