<svg viewBox="0 0 42 39" fill="currentColor" xmlns="http://www.w3.org/2000/svg">
<path d="M0.120171 0.0934639C0.102958 0.118954 1.49722 1.99673 3.20993 4.25686C4.92263 6.51699 8.5632 11.3261 11.3001 14.9373L16.2747 21.5052L15.9562 21.8621C15.7755 22.0575 12.1177 25.9575 7.83165 30.5288C3.54558 35.1085 0.0254989 38.881 0.0168923 38.9235C-0.000320818 38.966 0.74845 39 1.82427 38.9915L3.65747 38.983L4.25993 38.3288C4.59558 37.9719 7.71116 34.6497 11.1882 30.9366C14.6653 27.2235 17.6087 24.0797 17.7292 23.9438L17.9444 23.6974L19.6657 25.9745C20.6124 27.2235 23.2202 30.6732 25.4579 33.6301L29.5374 39H35.7771C40.9669 39 42.0083 38.983 41.9739 38.8895C41.948 38.8216 40.3644 36.7144 38.4538 34.1908C36.5431 31.6758 34.3571 28.7869 33.5997 27.7843C32.8337 26.7817 30.5874 23.7993 28.5907 21.1739C26.5939 18.5399 24.9587 16.3477 24.9587 16.3137C24.9587 16.2542 35.5103 4.9451 39.0993 1.16405L40.1235 0.0849648H38.2386L36.3624 0.0934639L34.1677 2.43856C32.9628 3.73006 30.0107 6.89085 27.6009 9.44836L23.2374 14.1046L17.9444 7.12026L12.6427 0.127449L6.40296 0.0849648C2.96894 0.0594749 0.137384 0.0679703 0.120171 0.0934639ZM14.9062 7.62157C16.946 10.3235 20.096 14.4784 21.9034 16.866C23.7107 19.2451 27.7214 24.5471 30.8198 28.634C33.9181 32.7294 36.4829 36.1196 36.5259 36.1791C36.5775 36.2556 35.9665 36.281 33.7374 36.281H30.8886L25.2427 28.8209C12.2124 11.632 5.63697 2.94836 5.55951 2.82091C5.50788 2.74444 6.09312 2.71895 8.33943 2.71895H11.1882L14.9062 7.62157Z" />
</svg>
